<svg width="16" height="17" viewBox="0 0 16 17" fill="none" xmlns="http://www.w3.org/2000/svg">
<path d="M2.66667 15.1667C2.47778 15.1667 2.31944 15.1028 2.19167 14.975C2.06389 14.8473 2 14.6889 2 14.5V11.1667C2 10.8 2.13056 10.4862 2.39167 10.225C2.65278 9.96393 2.96667 9.83337 3.33333 9.83337V7.16671C3.33333 6.80004 3.46389 6.48615 3.725 6.22504C3.98611 5.96393 4.3 5.83337 4.66667 5.83337H7.33333V4.86671C7.13333 4.73337 6.97222 4.57226 6.85 4.38337C6.72778 4.19448 6.66667 3.96671 6.66667 3.70004C6.66667 3.53337 6.7 3.36949 6.76667 3.20837C6.83333 3.04726 6.93333 2.90004 7.06667 2.76671L8 1.83337L8.93333 2.76671C9.06667 2.90004 9.16667 3.04726 9.23333 3.20837C9.3 3.36949 9.33333 3.53337 9.33333 3.70004C9.33333 3.96671 9.27222 4.19448 9.15 4.38337C9.02778 4.57226 8.86667 4.73337 8.66667 4.86671V5.83337H11.3333C11.7 5.83337 12.0139 5.96393 12.275 6.22504C12.5361 6.48615 12.6667 6.80004 12.6667 7.16671V9.83337C13.0333 9.83337 13.3472 9.96393 13.6083 10.225C13.8694 10.4862 14 10.8 14 11.1667V14.5C14 14.6889 13.9361 14.8473 13.8083 14.975C13.6806 15.1028 13.5222 15.1667 13.3333 15.1667H2.66667ZM4.66667 9.83337H11.3333V7.16671H4.66667V9.83337ZM3.33333 13.8334H12.6667V11.1667H3.33333V13.8334Z" fill="#ACACAC"/>
</svg>
