<svg width="15" height="14" viewBox="0 0 15 14" fill="none" xmlns="http://www.w3.org/2000/svg">
<path d="M0.833984 11.6663C0.833984 12.7997 1.70065 13.6663 2.83398 13.6663H12.1673C13.3007 13.6663 14.1673 12.7997 14.1673 11.6663V6.33301H0.833984V11.6663ZM12.1673 1.66634H10.834V0.999674C10.834 0.599674 10.5673 0.333008 10.1673 0.333008C9.76732 0.333008 9.50065 0.599674 9.50065 0.999674V1.66634H5.50065V0.999674C5.50065 0.599674 5.23398 0.333008 4.83398 0.333008C4.43398 0.333008 4.16732 0.599674 4.16732 0.999674V1.66634H2.83398C1.70065 1.66634 0.833984 2.53301 0.833984 3.66634V4.99967H14.1673V3.66634C14.1673 2.53301 13.3007 1.66634 12.1673 1.66634Z" fill="#BEC1C6"/>
</svg>
