<svg width="13" height="13" viewBox="0 0 13 13" fill="none" xmlns="http://www.w3.org/2000/svg">
<rect x="0.5" y="0.5" width="12" height="12" rx="6" fill="#ACACAC"/>
<g clip-path="url(#clip0_21_6285)">
<path d="M4.49992 9.83337C4.31659 9.83337 4.15964 9.7681 4.02909 9.63754C3.89853 9.50699 3.83325 9.35004 3.83325 9.16671V5.83337C3.83325 5.65004 3.89853 5.4931 4.02909 5.36254C4.15964 5.23199 4.31659 5.16671 4.49992 5.16671H4.83325V4.50004C4.83325 4.03893 4.99575 3.64587 5.32075 3.32087C5.64575 2.99587 6.03881 2.83337 6.49992 2.83337C6.96103 2.83337 7.35408 2.99587 7.67909 3.32087C8.00409 3.64587 8.16658 4.03893 8.16658 4.50004V5.16671H8.49992C8.68325 5.16671 8.8402 5.23199 8.97075 5.36254C9.10131 5.4931 9.16658 5.65004 9.16658 5.83337V9.16671C9.16658 9.35004 9.10131 9.50699 8.97075 9.63754C8.8402 9.7681 8.68325 9.83337 8.49992 9.83337H4.49992ZM4.49992 9.16671H8.49992V5.83337H4.49992V9.16671ZM6.49992 8.16671C6.68325 8.16671 6.8402 8.10143 6.97075 7.97087C7.10131 7.84032 7.16658 7.68337 7.16658 7.50004C7.16658 7.31671 7.10131 7.15976 6.97075 7.02921C6.8402 6.89865 6.68325 6.83337 6.49992 6.83337C6.31659 6.83337 6.15964 6.89865 6.02909 7.02921C5.89853 7.15976 5.83325 7.31671 5.83325 7.50004C5.83325 7.68337 5.89853 7.84032 6.02909 7.97087C6.15964 8.10143 6.31659 8.16671 6.49992 8.16671ZM5.49992 5.16671H7.49992V4.50004C7.49992 4.22226 7.4027 3.98615 7.20825 3.79171C7.01381 3.59726 6.7777 3.50004 6.49992 3.50004C6.22214 3.50004 5.98603 3.59726 5.79159 3.79171C5.59714 3.98615 5.49992 4.22226 5.49992 4.50004V5.16671Z" fill="white"/>
</g>
<defs>
<clipPath id="clip0_21_6285">
<rect width="8" height="8" fill="white" transform="translate(2.5 2.5)"/>
</clipPath>
</defs>
</svg>
