<svg width="13" height="13" viewBox="0 0 13 13" fill="none" xmlns="http://www.w3.org/2000/svg">
<rect x="0.5" y="0.5" width="12" height="12" rx="6" fill="#ACACAC"/>
<g clip-path="url(#clip0_21_6293)">
<path d="M2.83325 9.16671V8.23337C2.83325 8.04449 2.88186 7.87087 2.97909 7.71254C3.07631 7.55421 3.20547 7.43337 3.36659 7.35004C3.71103 7.17782 4.06103 7.04865 4.41659 6.96254C4.77214 6.87643 5.13325 6.83337 5.49992 6.83337C5.86659 6.83337 6.2277 6.87643 6.58325 6.96254C6.93881 7.04865 7.28881 7.17782 7.63325 7.35004C7.79436 7.43337 7.92353 7.55421 8.02075 7.71254C8.11797 7.87087 8.16659 8.04449 8.16659 8.23337V9.16671H2.83325ZM8.83325 9.16671V8.16671C8.83325 7.92226 8.7652 7.68754 8.62909 7.46254C8.49297 7.23754 8.29992 7.04449 8.04992 6.88337C8.33325 6.91671 8.59992 6.97365 8.84992 7.05421C9.09992 7.13476 9.33325 7.23337 9.54992 7.35004C9.74992 7.46115 9.9027 7.58476 10.0083 7.72087C10.1138 7.85699 10.1666 8.0056 10.1666 8.16671V9.16671H8.83325ZM5.49992 6.50004C5.13325 6.50004 4.81936 6.36949 4.55825 6.10837C4.29714 5.84726 4.16659 5.53337 4.16659 5.16671C4.16659 4.80004 4.29714 4.48615 4.55825 4.22504C4.81936 3.96393 5.13325 3.83337 5.49992 3.83337C5.86659 3.83337 6.18047 3.96393 6.44159 4.22504C6.7027 4.48615 6.83325 4.80004 6.83325 5.16671C6.83325 5.53337 6.7027 5.84726 6.44159 6.10837C6.18047 6.36949 5.86659 6.50004 5.49992 6.50004ZM8.83325 5.16671C8.83325 5.53337 8.7027 5.84726 8.44159 6.10837C8.18047 6.36949 7.86659 6.50004 7.49992 6.50004C7.43881 6.50004 7.36103 6.4931 7.26659 6.47921C7.17214 6.46532 7.09436 6.45004 7.03325 6.43337C7.18325 6.2556 7.29853 6.05837 7.37909 5.84171C7.45964 5.62504 7.49992 5.40004 7.49992 5.16671C7.49992 4.93337 7.45964 4.70837 7.37909 4.49171C7.29853 4.27504 7.18325 4.07782 7.03325 3.90004C7.11103 3.87226 7.18881 3.85421 7.26659 3.84587C7.34436 3.83754 7.42214 3.83337 7.49992 3.83337C7.86659 3.83337 8.18047 3.96393 8.44159 4.22504C8.7027 4.48615 8.83325 4.80004 8.83325 5.16671ZM3.49992 8.50004H7.49992V8.23337C7.49992 8.17226 7.48464 8.11671 7.45409 8.06671C7.42353 8.01671 7.38325 7.97782 7.33325 7.95004C7.03325 7.80004 6.73047 7.68754 6.42492 7.61254C6.11936 7.53754 5.81103 7.50004 5.49992 7.50004C5.18881 7.50004 4.88047 7.53754 4.57492 7.61254C4.26936 7.68754 3.96659 7.80004 3.66659 7.95004C3.61659 7.97782 3.57631 8.01671 3.54575 8.06671C3.5152 8.11671 3.49992 8.17226 3.49992 8.23337V8.50004ZM5.49992 5.83337C5.68325 5.83337 5.8402 5.7681 5.97075 5.63754C6.10131 5.50699 6.16659 5.35004 6.16659 5.16671C6.16659 4.98337 6.10131 4.82643 5.97075 4.69587C5.8402 4.56532 5.68325 4.50004 5.49992 4.50004C5.31659 4.50004 5.15964 4.56532 5.02909 4.69587C4.89853 4.82643 4.83325 4.98337 4.83325 5.16671C4.83325 5.35004 4.89853 5.50699 5.02909 5.63754C5.15964 5.7681 5.31659 5.83337 5.49992 5.83337Z" fill="white"/>
</g>
<defs>
<clipPath id="clip0_21_6293">
<rect width="8" height="8" fill="white" transform="translate(2.5 2.5)"/>
</clipPath>
</defs>
</svg>
