<svg width="13" height="13" viewBox="0 0 13 13" fill="none" xmlns="http://www.w3.org/2000/svg">
<rect x="0.5" y="0.5" width="12" height="12" rx="6" fill="#ACACAC"/>
<path d="M6.50008 8.33333C6.91675 8.33333 7.27091 8.1875 7.56258 7.89583C7.85425 7.60417 8.00008 7.25 8.00008 6.83333C8.00008 6.41667 7.85425 6.0625 7.56258 5.77083C7.27091 5.47917 6.91675 5.33333 6.50008 5.33333C6.08341 5.33333 5.72925 5.47917 5.43758 5.77083C5.14591 6.0625 5.00008 6.41667 5.00008 6.83333C5.00008 7.25 5.14591 7.60417 5.43758 7.89583C5.72925 8.1875 6.08341 8.33333 6.50008 8.33333ZM6.50008 7.66667C6.26675 7.66667 6.06953 7.58611 5.90841 7.425C5.7473 7.26389 5.66675 7.06667 5.66675 6.83333C5.66675 6.6 5.7473 6.40278 5.90841 6.24167C6.06953 6.08056 6.26675 6 6.50008 6C6.73341 6 6.93064 6.08056 7.09175 6.24167C7.25286 6.40278 7.33341 6.6 7.33341 6.83333C7.33341 7.06667 7.25286 7.26389 7.09175 7.425C6.93064 7.58611 6.73341 7.66667 6.50008 7.66667ZM3.83341 9.5C3.65008 9.5 3.49314 9.43472 3.36258 9.30417C3.23203 9.17361 3.16675 9.01667 3.16675 8.83333V4.83333C3.16675 4.65 3.23203 4.49306 3.36258 4.3625C3.49314 4.23194 3.65008 4.16667 3.83341 4.16667H4.88341L5.50008 3.5H7.50008L8.11675 4.16667H9.16675C9.35008 4.16667 9.50703 4.23194 9.63758 4.3625C9.76814 4.49306 9.83341 4.65 9.83341 4.83333V8.83333C9.83341 9.01667 9.76814 9.17361 9.63758 9.30417C9.50703 9.43472 9.35008 9.5 9.16675 9.5H3.83341ZM3.83341 8.83333H9.16675V4.83333H7.81675L7.20841 4.16667H5.79175L5.18341 4.83333H3.83341V8.83333Z" fill="white"/>
</svg>
