<svg width="13" height="13" viewBox="0 0 13 13" fill="none" xmlns="http://www.w3.org/2000/svg">
<rect x="0.5" y="0.5" width="12" height="12" rx="6" fill="#ACACAC"/>
<g clip-path="url(#clip0_21_6281)">
<path d="M5.0125 11.0938L4.18125 9.69375L2.60625 9.34375L2.75937 7.725L1.6875 6.5L2.75937 5.275L2.60625 3.65625L4.18125 3.30625L5.0125 1.90625L6.5 2.54062L7.9875 1.90625L8.81875 3.30625L10.3938 3.65625L10.2406 5.275L11.3125 6.5L10.2406 7.725L10.3938 9.34375L8.81875 9.69375L7.9875 11.0938L6.5 10.4594L5.0125 11.0938ZM5.38437 9.97812L6.5 9.49687L7.6375 9.97812L8.25 8.92812L9.45312 8.64375L9.34375 7.41875L10.1531 6.5L9.34375 5.55938L9.45312 4.33437L8.25 4.07187L7.61562 3.02188L6.5 3.50312L5.3625 3.02188L4.75 4.07187L3.54688 4.33437L3.65625 5.55938L2.84687 6.5L3.65625 7.41875L3.54688 8.66563L4.75 8.92812L5.38437 9.97812ZM6.04063 8.05312L8.5125 5.58125L7.9 4.94687L6.04063 6.80625L5.1 5.8875L4.4875 6.5L6.04063 8.05312Z" fill="#FFFDFA"/>
</g>
<defs>
<clipPath id="clip0_21_6281">
<rect width="10.5" height="10.5" fill="white" transform="translate(1.25 1.25)"/>
</clipPath>
</defs>
</svg>
