<svg width="25" height="24" viewBox="0 0 25 24" fill="none" xmlns="http://www.w3.org/2000/svg">
<g opacity="0.8">
<path d="M11.4998 12C10.3998 12 9.45809 11.6083 8.67476 10.825C7.89142 10.0417 7.49976 9.1 7.49976 8C7.49976 6.9 7.89142 5.95833 8.67476 5.175C9.45809 4.39167 10.3998 4 11.4998 4C12.5998 4 13.5414 4.39167 14.3248 5.175C15.1081 5.95833 15.4998 6.9 15.4998 8C15.4998 9.1 15.1081 10.0417 14.3248 10.825C13.5414 11.6083 12.5998 12 11.4998 12ZM11.4998 10C12.0498 10 12.5206 9.80417 12.9123 9.4125C13.3039 9.02083 13.4998 8.55 13.4998 8C13.4998 7.45 13.3039 6.97917 12.9123 6.5875C12.5206 6.19583 12.0498 6 11.4998 6C10.9498 6 10.4789 6.19583 10.0873 6.5875C9.69559 6.97917 9.49976 7.45 9.49976 8C9.49976 8.55 9.69559 9.02083 10.0873 9.4125C10.4789 9.80417 10.9498 10 11.4998 10ZM22.5998 23.5L19.3998 20.3C19.0498 20.5 18.6748 20.6667 18.2748 20.8C17.8748 20.9333 17.4498 21 16.9998 21C15.7498 21 14.6873 20.5625 13.8123 19.6875C12.9373 18.8125 12.4998 17.75 12.4998 16.5C12.4998 15.25 12.9373 14.1875 13.8123 13.3125C14.6873 12.4375 15.7498 12 16.9998 12C18.2498 12 19.3123 12.4375 20.1873 13.3125C21.0623 14.1875 21.4998 15.25 21.4998 16.5C21.4998 16.95 21.4331 17.375 21.2998 17.775C21.1664 18.175 20.9998 18.55 20.7998 18.9L23.9998 22.1L22.5998 23.5ZM16.9998 19C17.6998 19 18.2914 18.7583 18.7748 18.275C19.2581 17.7917 19.4998 17.2 19.4998 16.5C19.4998 15.8 19.2581 15.2083 18.7748 14.725C18.2914 14.2417 17.6998 14 16.9998 14C16.2998 14 15.7081 14.2417 15.2248 14.725C14.7414 15.2083 14.4998 15.8 14.4998 16.5C14.4998 17.2 14.7414 17.7917 15.2248 18.275C15.7081 18.7583 16.2998 19 16.9998 19ZM3.49976 20V17.225C3.49976 16.6583 3.64142 16.1333 3.92476 15.65C4.20809 15.1667 4.59976 14.8 5.09976 14.55C5.94976 14.1167 6.90809 13.75 7.97476 13.45C9.04142 13.15 10.2248 13 11.5248 13C11.3248 13.3 11.1539 13.6208 11.0123 13.9625C10.8706 14.3042 10.7581 14.6583 10.6748 15.025C9.67476 15.1083 8.78309 15.2792 7.99976 15.5375C7.21642 15.7958 6.55809 16.0667 6.02476 16.35C5.85809 16.4333 5.72892 16.5542 5.63726 16.7125C5.54559 16.8708 5.49976 17.0417 5.49976 17.225V18H10.6748C10.7581 18.3667 10.8706 18.7167 11.0123 19.05C11.1539 19.3833 11.3248 19.7 11.5248 20H3.49976Z" fill="#A0A0A0"/>
</g>
</svg>
