<svg width="25" height="24" viewBox="0 0 25 24" fill="none" xmlns="http://www.w3.org/2000/svg">
<path d="M6.0001 12.4L2.1001 8.5L6.0001 4.6L9.9001 8.5L6.0001 12.4ZM9.5001 22V17C8.48343 16.9167 7.4751 16.7958 6.4751 16.6375C5.4751 16.4792 4.48343 16.2667 3.5001 16L4.0001 14C5.4001 14.3833 6.80426 14.6458 8.2126 14.7875C9.62093 14.9292 11.0501 15 12.5001 15C13.9501 15 15.3793 14.9292 16.7876 14.7875C18.1959 14.6458 19.6001 14.3833 21.0001 14L21.5001 16C20.5168 16.2667 19.5251 16.4792 18.5251 16.6375C17.5251 16.7958 16.5168 16.9167 15.5001 17V22H9.5001ZM6.0001 9.6L7.1001 8.5L6.0001 7.4L4.9001 8.5L6.0001 9.6ZM12.5001 7C11.6668 7 10.9584 6.70833 10.3751 6.125C9.79177 5.54167 9.5001 4.83333 9.5001 4C9.5001 3.16667 9.79177 2.45833 10.3751 1.875C10.9584 1.29167 11.6668 1 12.5001 1C13.3334 1 14.0418 1.29167 14.6251 1.875C15.2084 2.45833 15.5001 3.16667 15.5001 4C15.5001 4.83333 15.2084 5.54167 14.6251 6.125C14.0418 6.70833 13.3334 7 12.5001 7ZM12.5001 14C11.9501 14 11.4793 13.8042 11.0876 13.4125C10.6959 13.0208 10.5001 12.55 10.5001 12C10.5001 11.45 10.6959 10.9792 11.0876 10.5875C11.4793 10.1958 11.9501 10 12.5001 10C13.0501 10 13.5209 10.1958 13.9126 10.5875C14.3043 10.9792 14.5001 11.45 14.5001 12C14.5001 12.55 14.3043 13.0208 13.9126 13.4125C13.5209 13.8042 13.0501 14 12.5001 14ZM12.5001 5C12.7834 5 13.0209 4.90417 13.2126 4.7125C13.4043 4.52083 13.5001 4.28333 13.5001 4C13.5001 3.71667 13.4043 3.47917 13.2126 3.2875C13.0209 3.09583 12.7834 3 12.5001 3C12.2168 3 11.9793 3.09583 11.7876 3.2875C11.5959 3.47917 11.5001 3.71667 11.5001 4C11.5001 4.28333 11.5959 4.52083 11.7876 4.7125C11.9793 4.90417 12.2168 5 12.5001 5ZM17.5501 12L15.8501 9L17.5501 6H20.9501L22.6501 9L20.9501 12H17.5501ZM18.7001 10H19.8001L20.3501 9L19.8001 8H18.7001L18.1501 9L18.7001 10Z" fill="#B3B3B3"/>
</svg>
