<svg width="16" height="17" viewBox="0 0 16 17" fill="none" xmlns="http://www.w3.org/2000/svg">
<path d="M7.99996 8.50004C8.36663 8.50004 8.68052 8.36948 8.94163 8.10837C9.20274 7.84726 9.33329 7.53337 9.33329 7.16671C9.33329 6.80004 9.20274 6.48615 8.94163 6.22504C8.68052 5.96393 8.36663 5.83337 7.99996 5.83337C7.63329 5.83337 7.3194 5.96393 7.05829 6.22504C6.79718 6.48615 6.66663 6.80004 6.66663 7.16671C6.66663 7.53337 6.79718 7.84726 7.05829 8.10837C7.3194 8.36948 7.63329 8.50004 7.99996 8.50004ZM7.99996 13.4C9.35552 12.1556 10.3611 11.025 11.0166 10.0084C11.6722 8.99171 12 8.08893 12 7.30004C12 6.08893 11.6138 5.09726 10.8416 4.32504C10.0694 3.55282 9.12218 3.16671 7.99996 3.16671C6.87774 3.16671 5.93052 3.55282 5.15829 4.32504C4.38607 5.09726 3.99996 6.08893 3.99996 7.30004C3.99996 8.08893 4.32774 8.99171 4.98329 10.0084C5.63885 11.025 6.6444 12.1556 7.99996 13.4ZM7.99996 15.1667C6.21107 13.6445 4.87496 12.2306 3.99163 10.925C3.10829 9.61948 2.66663 8.41115 2.66663 7.30004C2.66663 5.63337 3.20274 4.3056 4.27496 3.31671C5.34718 2.32782 6.58885 1.83337 7.99996 1.83337C9.41107 1.83337 10.6527 2.32782 11.725 3.31671C12.7972 4.3056 13.3333 5.63337 13.3333 7.30004C13.3333 8.41115 12.8916 9.61948 12.0083 10.925C11.125 12.2306 9.78885 13.6445 7.99996 15.1667Z" fill="#ACACAC"/>
</svg>
