<svg width="207" height="31" viewBox="0 0 207 31" fill="none" xmlns="http://www.w3.org/2000/svg">
<path d="M20.5803 2.58V7.1H13.1403V30.5H7.54031V7.1H0.100313V2.58H20.5803ZM37.1463 8.02C38.8263 8.02 40.3196 8.39333 41.6263 9.14C42.9329 9.86 43.9463 10.94 44.6663 12.38C45.4129 13.7933 45.7863 15.5 45.7863 17.5V30.5H40.1863V18.26C40.1863 16.5 39.7463 15.1533 38.8663 14.22C37.9863 13.26 36.7863 12.78 35.2663 12.78C33.7196 12.78 32.4929 13.26 31.5863 14.22C30.7063 15.1533 30.2663 16.5 30.2663 18.26V30.5H24.6663V0.9H30.2663V11.1C30.9863 10.14 31.9463 9.39333 33.1463 8.86C34.3463 8.3 35.6796 8.02 37.1463 8.02ZM72.0316 8.34V30.5H66.3916V27.7C65.6716 28.66 64.7249 29.42 63.5516 29.98C62.4049 30.5133 61.1516 30.78 59.7916 30.78C58.0582 30.78 56.5249 30.42 55.1916 29.7C53.8582 28.9533 52.8049 27.8733 52.0316 26.46C51.2849 25.02 50.9116 23.3133 50.9116 21.34V8.34H56.5116V20.54C56.5116 22.3 56.9516 23.66 57.8316 24.62C58.7116 25.5533 59.9116 26.02 61.4316 26.02C62.9782 26.02 64.1916 25.5533 65.0716 24.62C65.9516 23.66 66.3916 22.3 66.3916 20.54V8.34H72.0316ZM83.1569 11.78C83.8769 10.6067 84.8102 9.68667 85.9569 9.02C87.1302 8.35333 88.4635 8.02 89.9569 8.02V13.9H88.4769C86.7169 13.9 85.3835 14.3133 84.4769 15.14C83.5969 15.9667 83.1569 17.4067 83.1569 19.46V30.5H77.5569V8.34H83.1569V11.78ZM102.209 30.86C100.395 30.86 98.7688 30.54 97.3288 29.9C95.8888 29.2333 94.7421 28.34 93.8888 27.22C93.0621 26.1 92.6088 24.86 92.5288 23.5H98.1688C98.2754 24.3533 98.6888 25.06 99.4088 25.62C100.155 26.18 101.075 26.46 102.169 26.46C103.235 26.46 104.062 26.2467 104.649 25.82C105.262 25.3933 105.569 24.8467 105.569 24.18C105.569 23.46 105.195 22.9267 104.449 22.58C103.729 22.2067 102.569 21.8067 100.969 21.38C99.3154 20.98 97.9554 20.5667 96.8888 20.14C95.8488 19.7133 94.9421 19.06 94.1688 18.18C93.4221 17.3 93.0488 16.1133 93.0488 14.62C93.0488 13.3933 93.3954 12.2733 94.0888 11.26C94.8088 10.2467 95.8221 9.44667 97.1288 8.86C98.4621 8.27333 100.022 7.98 101.809 7.98C104.449 7.98 106.555 8.64667 108.129 9.98C109.702 11.2867 110.569 13.06 110.729 15.3H105.369C105.289 14.42 104.915 13.7267 104.249 13.22C103.609 12.6867 102.742 12.42 101.649 12.42C100.635 12.42 99.8488 12.6067 99.2888 12.98C98.7554 13.3533 98.4888 13.8733 98.4888 14.54C98.4888 15.2867 98.8621 15.86 99.6088 16.26C100.355 16.6333 101.515 17.02 103.089 17.42C104.689 17.82 106.009 18.2333 107.049 18.66C108.089 19.0867 108.982 19.7533 109.729 20.66C110.502 21.54 110.902 22.7133 110.929 24.18C110.929 25.46 110.569 26.6067 109.849 27.62C109.155 28.6333 108.142 29.4333 106.809 30.02C105.502 30.58 103.969 30.86 102.209 30.86ZM114.006 19.34C114.406 17.1 115.192 15.1133 116.366 13.38C117.566 11.6467 119.019 10.3133 120.726 9.38C122.459 8.44667 124.272 7.98 126.166 7.98C127.606 7.98 128.926 8.3 130.126 8.94C131.326 9.55333 132.219 10.38 132.806 11.42L134.686 0.9H140.326L135.086 30.5H129.446L130.046 27.22C129.166 28.3133 128.032 29.1933 126.646 29.86C125.286 30.5267 123.779 30.86 122.126 30.86C120.499 30.86 119.046 30.5 117.766 29.78C116.512 29.0333 115.526 27.9933 114.806 26.66C114.112 25.3 113.766 23.7267 113.766 21.94C113.766 21.1133 113.846 20.2467 114.006 19.34ZM131.406 19.42C131.512 18.7267 131.566 18.22 131.566 17.9C131.566 16.3267 131.099 15.1 130.166 14.22C129.259 13.34 128.112 12.9 126.726 12.9C125.686 12.9 124.672 13.1533 123.686 13.66C122.726 14.1667 121.886 14.9133 121.166 15.9C120.446 16.86 119.966 18.0067 119.726 19.34C119.646 19.8467 119.606 20.3267 119.606 20.78C119.606 22.38 120.059 23.6467 120.966 24.58C121.872 25.4867 123.019 25.94 124.406 25.94C125.446 25.94 126.459 25.6867 127.446 25.18C128.432 24.6467 129.272 23.8867 129.966 22.9C130.686 21.9133 131.166 20.7533 131.406 19.42ZM141.115 19.34C141.515 17.1 142.302 15.1133 143.475 13.38C144.675 11.6467 146.128 10.3133 147.835 9.38C149.542 8.44667 151.342 7.98 153.235 7.98C154.888 7.98 156.275 8.31333 157.395 8.98C158.542 9.64667 159.382 10.4867 159.915 11.5L160.475 8.34H166.115L162.195 30.5H156.555L157.155 27.26C156.275 28.3 155.128 29.1667 153.715 29.86C152.328 30.5267 150.808 30.86 149.155 30.86C147.528 30.86 146.088 30.5 144.835 29.78C143.582 29.0333 142.608 27.9933 141.915 26.66C141.222 25.3 140.875 23.7267 140.875 21.94C140.875 21.1133 140.955 20.2467 141.115 19.34ZM158.515 19.42C158.622 18.7267 158.675 18.22 158.675 17.9C158.675 16.3267 158.208 15.1 157.275 14.22C156.368 13.34 155.222 12.9 153.835 12.9C152.795 12.9 151.782 13.1533 150.795 13.66C149.835 14.1667 148.995 14.9133 148.275 15.9C147.555 16.86 147.075 18.0067 146.835 19.34C146.755 19.8467 146.715 20.3267 146.715 20.78C146.715 22.38 147.168 23.6467 148.075 24.58C148.982 25.4867 150.128 25.94 151.515 25.94C152.555 25.94 153.568 25.6867 154.555 25.18C155.542 24.6467 156.382 23.8867 157.075 22.9C157.795 21.9133 158.275 20.7533 158.515 19.42ZM175.424 23.66C175.398 23.82 175.384 24.0333 175.384 24.3C175.384 24.8333 175.531 25.22 175.824 25.46C176.144 25.6733 176.664 25.78 177.384 25.78H180.024L179.184 30.5H175.624C171.624 30.5 169.624 28.8333 169.624 25.5C169.624 24.86 169.678 24.2333 169.784 23.62L171.664 12.94H169.024L169.824 8.34H172.504L173.464 2.86H179.104L178.144 8.34H183.064L182.264 12.94H177.304L175.424 23.66ZM196.852 7.98C199.679 7.98 201.919 8.76667 203.572 10.34C205.226 11.8867 206.052 13.98 206.052 16.62C206.052 17.4733 205.986 18.2333 205.852 18.9C205.692 19.7 205.519 20.3933 205.332 20.98H189.132C189.106 21.1667 189.092 21.4333 189.092 21.78C189.092 23.1667 189.492 24.26 190.292 25.06C191.119 25.8333 192.199 26.22 193.532 26.22C194.652 26.22 195.612 25.98 196.412 25.5C197.239 24.9933 197.906 24.34 198.412 23.54H204.452C203.466 25.6733 201.932 27.4333 199.852 28.82C197.799 30.18 195.466 30.86 192.852 30.86C190.026 30.86 187.759 30.06 186.052 28.46C184.346 26.86 183.492 24.6867 183.492 21.94C183.492 21.14 183.572 20.3 183.732 19.42C184.132 17.1267 184.946 15.1133 186.172 13.38C187.426 11.6467 188.972 10.3133 190.812 9.38C192.652 8.44667 194.666 7.98 196.852 7.98ZM200.292 17.58C200.346 17.1533 200.372 16.8467 200.372 16.66C200.372 15.38 199.959 14.38 199.132 13.66C198.306 12.94 197.226 12.58 195.892 12.58C194.479 12.58 193.212 13.0333 192.092 13.94C190.972 14.82 190.186 16.0333 189.732 17.58H200.292Z" fill="white"/>
</svg>
