<svg width="25" height="25" viewBox="0 0 25 25" fill="none" xmlns="http://www.w3.org/2000/svg">
<path d="M18.45 16.675L15.6 13.85L17.025 12.45L18.45 13.85L21.975 10.325L23.4 11.725L18.45 16.675ZM11.5 21.5L8.325 18.65C7.125 17.5667 6.09583 16.6 5.2375 15.75C4.37917 14.9 3.67083 14.1 3.1125 13.35C2.55417 12.6 2.14583 11.875 1.8875 11.175C1.62917 10.475 1.5 9.74167 1.5 8.975C1.5 7.40833 2.025 6.10417 3.075 5.0625C4.125 4.02083 5.43333 3.5 7 3.5C7.86667 3.5 8.69167 3.68333 9.475 4.05C10.2583 4.41667 10.9333 4.93333 11.5 5.6C12.0667 4.93333 12.7417 4.41667 13.525 4.05C14.3083 3.68333 15.1333 3.5 16 3.5C17.35 3.5 18.4833 3.87917 19.4 4.6375C20.3167 5.39583 20.9417 6.35 21.275 7.5H19.15C18.85 6.83333 18.4083 6.33333 17.825 6C17.2417 5.66667 16.6333 5.5 16 5.5C15.15 5.5 14.4167 5.72917 13.8 6.1875C13.1833 6.64583 12.6083 7.25 12.075 8H10.925C10.4083 7.25 9.82083 6.64583 9.1625 6.1875C8.50417 5.72917 7.78333 5.5 7 5.5C6.05 5.5 5.22917 5.82917 4.5375 6.4875C3.84583 7.14583 3.5 7.975 3.5 8.975C3.5 9.525 3.61667 10.0833 3.85 10.65C4.08333 11.2167 4.5 11.8708 5.1 12.6125C5.7 13.3542 6.51667 14.2208 7.55 15.2125C8.58333 16.2042 9.9 17.4 11.5 18.8C11.9333 18.4167 12.4417 17.975 13.025 17.475C13.6083 16.975 14.075 16.5583 14.425 16.225L14.65 16.45L15.1375 16.9375L15.625 17.425L15.85 17.65C15.4833 17.9833 15.0167 18.3958 14.45 18.8875C13.8833 19.3792 13.3833 19.8167 12.95 20.2L11.5 21.5Z" fill="#A0A0A0"/>
</svg>
