<svg width="81" height="40" viewBox="0 0 81 40" fill="none" xmlns="http://www.w3.org/2000/svg">
<path d="M0.5 40V34.75C0.5 32.3611 1.72222 30.4167 4.16667 28.9167C6.61111 27.4167 9.83333 26.6667 13.8333 26.6667C14.5556 26.6667 15.25 26.6806 15.9167 26.7083C16.5833 26.7361 17.2222 26.8056 17.8333 26.9167C17.0556 28.0833 16.4722 29.3056 16.0833 30.5833C15.6944 31.8611 15.5 33.1944 15.5 34.5833V40H0.5ZM20.5 40V34.5833C20.5 32.8056 20.9861 31.1806 21.9583 29.7083C22.9306 28.2361 24.3056 26.9444 26.0833 25.8333C27.8611 24.7222 29.9861 23.8889 32.4583 23.3333C34.9306 22.7778 37.6111 22.5 40.5 22.5C43.4444 22.5 46.1528 22.7778 48.625 23.3333C51.0972 23.8889 53.2222 24.7222 55 25.8333C56.7778 26.9444 58.1389 28.2361 59.0833 29.7083C60.0278 31.1806 60.5 32.8056 60.5 34.5833V40H20.5ZM65.5 40V34.5833C65.5 33.1389 65.3194 31.7778 64.9583 30.5C64.5972 29.2222 64.0556 28.0278 63.3333 26.9167C63.9444 26.8056 64.5694 26.7361 65.2083 26.7083C65.8472 26.6806 66.5 26.6667 67.1667 26.6667C71.1667 26.6667 74.3889 27.4028 76.8333 28.875C79.2778 30.3472 80.5 32.3056 80.5 34.75V40H65.5ZM13.8333 23.3333C12 23.3333 10.4306 22.6806 9.125 21.375C7.81944 20.0694 7.16667 18.5 7.16667 16.6667C7.16667 14.7778 7.81944 13.1944 9.125 11.9167C10.4306 10.6389 12 10 13.8333 10C15.7222 10 17.3056 10.6389 18.5833 11.9167C19.8611 13.1944 20.5 14.7778 20.5 16.6667C20.5 18.5 19.8611 20.0694 18.5833 21.375C17.3056 22.6806 15.7222 23.3333 13.8333 23.3333ZM67.1667 23.3333C65.3333 23.3333 63.7639 22.6806 62.4583 21.375C61.1528 20.0694 60.5 18.5 60.5 16.6667C60.5 14.7778 61.1528 13.1944 62.4583 11.9167C63.7639 10.6389 65.3333 10 67.1667 10C69.0556 10 70.6389 10.6389 71.9167 11.9167C73.1945 13.1944 73.8333 14.7778 73.8333 16.6667C73.8333 18.5 73.1945 20.0694 71.9167 21.375C70.6389 22.6806 69.0556 23.3333 67.1667 23.3333ZM40.5 20C37.7222 20 35.3611 19.0278 33.4167 17.0833C31.4722 15.1389 30.5 12.7778 30.5 10C30.5 7.16667 31.4722 4.79167 33.4167 2.875C35.3611 0.958333 37.7222 0 40.5 0C43.3333 0 45.7083 0.958333 47.625 2.875C49.5417 4.79167 50.5 7.16667 50.5 10C50.5 12.7778 49.5417 15.1389 47.625 17.0833C45.7083 19.0278 43.3333 20 40.5 20Z" fill="#ACACAC"/>
</svg>
