<svg width="16" height="17" viewBox="0 0 16 17" fill="none" xmlns="http://www.w3.org/2000/svg">
<path d="M2.66671 3.23901L4.00004 5.90568H6.00004L4.66671 3.23901H6.00004L7.33337 5.90568H9.33337L8.00004 3.23901H9.33337L10.6667 5.90568H12.6667L11.3334 3.23901H13.3334C13.7 3.23901 14.0139 3.36957 14.275 3.63068C14.5362 3.89179 14.6667 4.20568 14.6667 4.57235V12.5723C14.6667 12.939 14.5362 13.2529 14.275 13.514C14.0139 13.7751 13.7 13.9057 13.3334 13.9057H2.66671C2.30004 13.9057 1.98615 13.7751 1.72504 13.514C1.46393 13.2529 1.33337 12.939 1.33337 12.5723V4.57235C1.33337 4.20568 1.46393 3.89179 1.72504 3.63068C1.98615 3.36957 2.30004 3.23901 2.66671 3.23901ZM2.66671 7.23901V12.5723H13.3334V7.23901H2.66671Z" fill="#ACACAC"/>
</svg>
