<svg width="16" height="16" viewBox="0 0 16 16" fill="none" xmlns="http://www.w3.org/2000/svg">
<path d="M6.16672 14.6667L5.90005 12.5333C5.7556 12.4778 5.61949 12.4111 5.49172 12.3333C5.36394 12.2556 5.23894 12.1722 5.11672 12.0833L3.13338 12.9167L1.30005 9.75L3.01672 8.45C3.0056 8.37222 3.00005 8.29722 3.00005 8.225V7.775C3.00005 7.70278 3.0056 7.62778 3.01672 7.55L1.30005 6.25L3.13338 3.08334L5.11672 3.91667C5.23894 3.82778 5.36672 3.74445 5.50005 3.66667C5.63338 3.58889 5.76672 3.52222 5.90005 3.46667L6.16672 1.33334H9.83338L10.1 3.46667C10.2445 3.52222 10.3806 3.58889 10.5084 3.66667C10.6362 3.74445 10.7612 3.82778 10.8834 3.91667L12.8667 3.08334L14.7 6.25L12.9834 7.55C12.9945 7.62778 13 7.70278 13 7.775V8.225C13 8.29722 12.9889 8.37222 12.9667 8.45L14.6834 9.75L12.85 12.9167L10.8834 12.0833C10.7612 12.1722 10.6334 12.2556 10.5 12.3333C10.3667 12.4111 10.2334 12.4778 10.1 12.5333L9.83338 14.6667H6.16672ZM8.03338 10.3333C8.67783 10.3333 9.22783 10.1056 9.68338 9.65C10.1389 9.19445 10.3667 8.64445 10.3667 8C10.3667 7.35556 10.1389 6.80556 9.68338 6.35C9.22783 5.89445 8.67783 5.66667 8.03338 5.66667C7.37783 5.66667 6.82505 5.89445 6.37505 6.35C5.92505 6.80556 5.70005 7.35556 5.70005 8C5.70005 8.64445 5.92505 9.19445 6.37505 9.65C6.82505 10.1056 7.37783 10.3333 8.03338 10.3333Z" fill="#131313"/>
</svg>
