<svg width="16" height="17" viewBox="0 0 16 17" fill="none" xmlns="http://www.w3.org/2000/svg">
<path d="M6.33337 10.4057L11 7.40572L6.33337 4.40572V10.4057ZM5.33337 14.0724V12.7391H2.66671C2.30004 12.7391 1.98615 12.6085 1.72504 12.3474C1.46393 12.0863 1.33337 11.7724 1.33337 11.4057V3.40572C1.33337 3.03905 1.46393 2.72517 1.72504 2.46405C1.98615 2.20294 2.30004 2.07239 2.66671 2.07239H13.3334C13.7 2.07239 14.0139 2.20294 14.275 2.46405C14.5362 2.72517 14.6667 3.03905 14.6667 3.40572V11.4057C14.6667 11.7724 14.5362 12.0863 14.275 12.3474C14.0139 12.6085 13.7 12.7391 13.3334 12.7391H10.6667V14.0724H5.33337ZM2.66671 11.4057H13.3334V3.40572H2.66671V11.4057Z" fill="#ACACAC"/>
</svg>
