<svg width="16" height="17" viewBox="0 0 16 17" fill="none" xmlns="http://www.w3.org/2000/svg">
<path d="M7.33337 10.5724H8.66671V8.57239H10.6667V7.23905H8.66671V5.23905H7.33337V7.23905H5.33337V8.57239H7.33337V10.5724ZM5.33337 14.5724V13.2391H2.66671C2.30004 13.2391 1.98615 13.1085 1.72504 12.8474C1.46393 12.5863 1.33337 12.2724 1.33337 11.9057V3.90572C1.33337 3.53905 1.46393 3.22517 1.72504 2.96405C1.98615 2.70294 2.30004 2.57239 2.66671 2.57239H13.3334C13.7 2.57239 14.0139 2.70294 14.275 2.96405C14.5362 3.22517 14.6667 3.53905 14.6667 3.90572V11.9057C14.6667 12.2724 14.5362 12.5863 14.275 12.8474C14.0139 13.1085 13.7 13.2391 13.3334 13.2391H10.6667V14.5724H5.33337ZM2.66671 11.9057H13.3334V3.90572H2.66671V11.9057Z" fill="#ACACAC"/>
</svg>
